HIERARCHY
ROOT Hips
{
	OFFSET 0.000000 0.000000 0.000000
	CHANNELS 6 Xposition Yposition Zposition Zrotation Yrotation Xrotation 
	JOINT LHipJoint
	{
		OFFSET 0.000000 0.000000 0.000000
		CHANNELS 3 Zrotation Yrotation Xrotation
		JOINT LeftUpLeg
		{
			OFFSET 1.363060 -1.794630 0.839290
			CHANNELS 3 Zrotation Yrotation Xrotation
			JOINT LeftLeg
			{
				OFFSET 2.448110 -6.726130 0.000000
				CHANNELS 3 Zrotation Yrotation Xrotation
				JOINT LeftFoot
				{
					OFFSET 2.562200 -7.039590 0.000000
					CHANNELS 3 Zrotation Yrotation Xrotation
					JOINT LeftToeBase
					{
						OFFSET 0.157640 -0.433110 2.322550
						CHANNELS 3 Zrotation Yrotation Xrotation
						End Site
						{
							OFFSET 0.000000 0.000000 0.000000
						}
					}
				}
			}
		}
	}
	JOINT RHipJoint
	{
		OFFSET 0.000000 0.000000 0.000000
		CHANNELS 3 Zrotation Yrotation Xrotation
		JOINT RightUpLeg
		{
			OFFSET -1.305520 -1.794630 0.839290
			CHANNELS 3 Zrotation Yrotation Xrotation
			JOINT RightLeg
			{
				OFFSET -2.542530 -6.985550 0.000000
				CHANNELS 3 Zrotation Yrotation Xrotation
				JOINT RightFoot
				{
					OFFSET -2.568260 -7.056230 0.000000
					CHANNELS 3 Zrotation Yrotation Xrotation
					JOINT RightToeBase
					{
						OFFSET -0.164730 -0.452590 2.363150
						CHANNELS 3 Zrotation Yrotation Xrotation
						End Site
						{
							OFFSET 0.000000 0.000000 0.000000
						}
					}
				}
			}
		}
	}
}
MOTION
Frames: 22
Frame Time: 0.008333
1.374817 17.132095 0.802479 -1.806304 -83.020814 12.405811 -9.536957 1.135743 4.940030 -11.210990 -14.715069 -19.686316 -1.636102 0.039737 20.460473 1.940871 9.230337 -11.802907 -0.679300 -0.000000 -29.083200 10.112911 -0.979032 0.086742 4.360199 -3.671625 -24.480870 -0.245020 -2.606837 43.359168 -2.908922 -15.625084 1.017971 -2.974700 -0.000000 -72.320400
1.384784 17.142670 0.828081 -3.738847 -82.442265 13.953051 -9.615500 1.109663 4.850457 -10.996127 -14.496545 -19.109077 -1.638758 0.035598 20.179200 1.837400 8.737818 -11.594849 -0.628200 0.000000 -29.397000 10.188472 -0.904779 -0.048353 4.529524 -3.986724 -26.172983 -0.518219 -2.859952 46.940029 -2.897101 -15.929725 3.972762 -3.708000 0.000000 -73.116300
1.396157 17.154998 0.853490 -5.700024 -81.839692 15.499010 -9.703993 1.088047 4.751299 -10.732088 -14.209980 -18.498505 -1.640158 0.031031 19.852904 1.724167 8.189619 -11.352507 -0.571500 0.000001 -29.795900 10.254713 -0.809536 -0.192508 4.742203 -4.370822 -27.918880 -0.774116 -3.087805 50.516428 -2.887535 -16.086203 7.024937 -4.413700 0.000000 -73.352500
1.408681 17.169064 0.878515 -7.671201 -81.222640 17.032170 -9.801378 1.071645 4.650059 -10.415334 -13.872651 -17.869557 -1.638127 0.026069 19.486757 1.605725 7.608131 -11.076720 -0.510800 0.000000 -30.277900 10.308525 -0.696096 -0.344547 4.998856 -4.818102 -29.729052 -1.004023 -3.296757 54.083405 -2.876861 -16.055804 9.976964 -5.015200 0.000000 -72.810400
1.422189 17.184954 0.903211 -9.652803 -80.606484 18.559843 -9.907088 1.060406 4.550757 -10.044938 -13.496849 -17.230185 -1.630645 0.020651 19.081679 1.486484 7.017271 -10.767028 -0.448000 0.000000 -30.844100 10.347837 -0.568377 -0.503880 5.299355 -5.314015 -31.611894 -1.207762 -3.495355 57.631175 -2.861325 -15.829481 12.675982 -5.460000 0.000000 -71.696900
1.436485 17.202735 0.927571 -11.647340 -80.006394 20.091420 -10.020124 1.054118 4.457746 -9.622182 -13.098723 -16.586804 -1.615744 0.014703 18.639906 1.371323 6.444841 -10.425351 -0.385100 -0.000000 -31.488500 10.372122 -0.430375 -0.669586 5.642685 -5.843575 -33.578716 -1.391930 -3.692747 61.157372 -2.837021 -15.418115 14.998395 -5.717900 0.000000 -70.257600
1.451648 17.222386 0.951700 -13.668326 -79.435952 21.643363 -10.139344 1.051541 4.374181 -9.149920 -12.697822 -15.942685 -1.591574 0.008280 18.163785 1.265162 5.920737 -10.055738 -0.324199 0.000000 -32.199700 10.381231 -0.284422 -0.840900 6.027907 -6.389842 -35.639846 -1.567319 -3.896353 64.659546 -2.801537 -14.851702 16.872695 -5.787900 -0.000000 -68.797600
1.467559 17.243832 0.975726 -15.726752 -78.905227 23.232265 -10.263393 1.051367 4.302147 -8.632316 -12.315478 -15.296454 -1.556527 0.001427 17.655421 1.172606 5.474844 -9.663901 -0.266900 0.000001 -32.957600 10.375210 -0.131345 -1.016763 6.452879 -6.935067 -37.802145 -1.745670 -4.110901 68.134760 -2.753717 -14.166537 18.276950 -5.689901 0.000000 -67.561900
1.484349 17.266939 0.999858 -17.843413 -78.419811 24.879631 -10.391391 1.051722 4.241809 -8.073395 -11.971274 -14.643918 -1.509381 -0.005412 17.118495 1.097255 5.132115 -9.257738 -0.214101 0.000000 -33.738800 10.353445 0.029362 -1.196641 6.916839 -7.462235 -40.066040 -1.937134 -4.338237 71.576817 -2.693465 -13.397392 19.232951 -5.456401 -0.000000 -66.705700
1.502235 17.291500 1.024409 -20.047455 -77.979381 26.612925 -10.523717 1.050942 4.191336 -7.473908 -11.678662 -13.977938 -1.449164 -0.011177 16.560124 1.041080 4.907945 -8.845494 -0.165900 0.000000 -34.519000 10.314231 0.198640 -1.380042 7.421587 -7.954891 -42.423601 -2.148592 -4.577132 74.971255 -2.621966 -12.575795 19.802514 -5.126100 -0.000000 -66.333400
1.521344 17.317182 1.049659 -22.355207 -77.579390 28.447718 -10.660886 1.047258 4.147956 -6.835352 -11.451698 -13.290871 -1.375403 -0.014527 15.988189 1.005455 4.813219 -8.437135 -0.121800 0.000000 -35.271600 10.255430 0.378172 -1.568094 7.967268 -8.401532 -44.864134 -2.383851 -4.824972 78.303213 -2.539935 -11.717920 20.060566 -4.730400 -0.000000 -66.406000
1.542192 17.343616 1.075948 -24.788444 -77.209908 30.399145 -10.805191 1.038841 4.106911 -6.155854 -11.294176 -12.577056 -1.288045 -0.013346 15.416270 0.989848 4.845239 -8.042393 -0.080500 0.000000 -35.974900 10.173753 0.569307 -1.762423 8.555945 -8.793323 -47.371031 -2.643293 -5.077411 81.551336 -2.448831 -10.834698 20.098738 -4.297300 -0.000000 -66.868400
1.565173 17.370291 1.103609 -27.353440 -76.857171 32.469437 -10.959771 1.024197 4.062908 -5.432759 -11.204583 -11.833346 -1.187537 -0.005307 14.860756 0.992572 4.991953 -7.670622 -0.040900 -0.000000 -36.613700 10.065364 0.772767 -1.965440 9.189670 -9.126474 -49.927037 -2.924670 -5.329636 84.693208 -2.350050 -9.929239 20.006789 -3.846600 0.000000 -67.619400
1.590833 17.396654 1.132859 -30.039269 -76.505948 34.642769 -11.128004 1.001524 4.010216 -4.664962 -11.176918 -11.060866 -1.074946 0.011952 14.340517 1.011076 5.234128 -7.330090 -0.002500 -0.000001 -37.178700 9.926308 0.989041 -2.179904 9.867299 -9.401312 -52.517437 -3.223791 -5.577102 87.706865 -2.244988 -9.000065 19.864869 -3.390300 0.000001 -68.549200
1.619643 17.422058 1.163856 -32.819335 -76.138902 36.888754 -11.314064 0.969283 3.942605 -3.850341 -11.195461 -10.264217 -0.951959 0.040693 13.877453 1.041337 5.541574 -7.028179 0.034800 -0.000001 -37.670700 9.752513 1.217245 -2.408514 10.587686 -9.622393 -55.128862 -3.535079 -5.815793 90.571011 -2.134838 -8.044077 19.733552 -2.934400 0.000000 -69.541300
1.652142 17.445849 1.196615 -35.644794 -75.741479 39.155769 -11.520431 0.925342 3.854681 -2.991825 -11.246568 -9.451091 -0.820847 0.082418 13.490610 1.079535 5.885713 -6.769696 0.070200 0.000000 -38.095300 9.540947 1.456408 -2.653528 11.343967 -9.797323 -57.754939 -3.852401 -6.043189 93.267009 -2.020511 -7.057756 19.650153 -2.479000 -0.000000 -70.511200
1.688767 17.467357 1.230965 -38.458188 -75.301165 41.384912 -11.748935 0.867648 3.741127 -2.092641 -11.310910 -8.631170 -0.684350 0.138055 13.198449 1.121183 6.233927 -6.558136 0.102401 -0.000000 -38.465100 9.289446 1.704586 -2.916419 12.127892 -9.935872 -60.392628 -4.169371 -6.257885 95.777575 -1.902526 -6.039237 19.626406 -2.021900 -0.000001 -71.404800
1.729692 17.485949 1.266426 -41.181046 -74.811737 43.500748 -11.996816 0.794293 3.599236 -1.165468 -11.380708 -7.813781 -0.545715 0.207170 13.011630 1.163411 6.566130 -6.393577 0.130099 0.000000 -38.791400 8.998780 1.960608 -3.196559 12.921240 -10.049452 -63.048373 -4.480287 -6.460548 98.088888 -1.781010 -4.987905 19.651437 -1.559200 0.000000 -72.205200
1.774841 17.501116 1.302592 -43.755443 -74.271039 45.449887 -12.261414 0.703783 3.426330 -0.219511 -11.441743 -7.009512 -0.408104 0.288983 12.939568 1.202954 6.859960 -6.276449 0.151800 -0.000000 -39.090200 8.670142 2.222509 -3.492186 13.709510 -10.147996 -65.728814 -4.779545 -6.652112 100.187013 -1.656030 -3.908728 19.697701 -1.089200 -0.000000 -72.937600
1.824244 17.512444 1.338950 -46.143726 -73.680520 47.194521 -12.539459 0.594745 3.220238 0.736798 -11.479847 -6.226530 -0.274416 0.382497 12.987370 1.236921 7.096820 -6.205068 0.166500 -0.000000 -39.377300 8.305651 2.488279 -3.800655 14.478785 -10.240639 -68.439861 -5.061482 -6.833676 102.057077 -1.527436 -2.809987 19.724799 -0.613600 0.000000 -73.597900
1.877413 17.519655 1.374992 -48.318955 -73.046269 48.713143 -12.826394 0.466623 2.981091 1.694119 -11.486875 -5.473026 -0.147149 0.486101 13.154906 1.263716 7.267276 -6.177931 0.173400 -0.000000 -39.664900 7.908410 2.756183 -4.117278 15.215066 -10.334324 -71.190649 -5.320801 -7.006631 103.686256 -1.395423 -1.704805 19.691600 -0.138100 -0.000001 -74.187701
1.933453 17.522700 1.409890 -50.246908 -72.380908 49.982246 -13.112729 0.320026 2.713071 2.631758 -11.473698 -4.757566 -0.028801 0.597289 13.435311 1.284480 7.381594 -6.191214 0.173200 -0.000001 -39.953100 7.484493 3.026621 -4.433372 15.894395 -10.433752 -73.997364 -5.552630 -7.173168 105.062780 -1.261278 -0.610989 19.573426 0.326900 0.000000 -74.800900
